<svg xmlns="http://www.w3.org/2000/svg" width="17" height="10.674" viewBox="0 0 17 10.674">
  <defs>
    <style>
      .cls-1 {
        fill: #191919;
      }
    </style>
  </defs>
  <path id="mail" class="cls-1" d="M8.588,975.362a1.614,1.614,0,0,0-1.174.408A1.615,1.615,0,0,0,7,976.944v7.512a1.593,1.593,0,0,0,.414,1.167,1.645,1.645,0,0,0,1.186.414H22.425a1.6,1.6,0,0,0,1.168-.42,1.631,1.631,0,0,0,.408-1.18v-7.512a1.42,1.42,0,0,0-1.563-1.563Zm14.152.822L15.9,981.725a.809.809,0,0,1-.8,0L8.266,976.19C12.93,976.156,18.86,976.156,22.74,976.184ZM7.8,976.82l4.75,3.855-4.738,4.034C7.79,981.963,7.791,979.319,7.8,976.82Zm15.406,0c.006,2.7.006,5.464-.019,7.888l-4.732-4.034Zm-10.026,4.361c.514.414,1.037.85,1.551,1.254a1.715,1.715,0,0,0,1.544,0c.517-.4,1.036-.836,1.551-1.254l4.763,4.059c-4.713.01-9.9,0-14.171-.006Z" transform="translate(-7 -975.362)"/>
</svg>
