<svg id="facebook_footer" xmlns="http://www.w3.org/2000/svg" width="31.795" height="31.795" viewBox="0 0 31.795 31.795">
  <defs>
    <style>
      .cls-1 {
        fill: #9a9a9a;
        fill-rule: evenodd;
      }
    </style>
  </defs>
  <g id="Facebook">
    <path id="Oval-1" class="cls-1" d="M15.9,31.795A15.9,15.9,0,1,0,0,15.9,15.9,15.9,0,0,0,15.9,31.795Zm0-1.908A13.99,13.99,0,1,0,1.908,15.9,13.99,13.99,0,0,0,15.9,29.887Zm1.154-6.995v-7h2.069l.274-2.411H17.051l0-1.207c0-.629.064-.966,1.032-.966H19.38V8.9h-2.07c-2.486,0-3.361,1.169-3.361,3.136v1.447H12.4V15.9h1.55v7Zm0,0"/>
  </g>
</svg>
