<svg id="linkedin_footer" data-name="linkedin footer" xmlns="http://www.w3.org/2000/svg" width="31.795" height="31.795" viewBox="0 0 31.795 31.795">
  <defs>
    <style>
      .cls-1 {
        fill: #9a9a9a;
        fill-rule: evenodd;
      }
    </style>
  </defs>
  <g id="LinkedIn">
    <path id="Oval-1" class="cls-1" d="M15.9,31.795A15.9,15.9,0,1,0,0,15.9,15.9,15.9,0,0,0,15.9,31.795Zm0-1.908A13.99,13.99,0,1,0,1.908,15.9,13.99,13.99,0,0,0,15.9,29.887ZM8.9,12.793v9.246h3V12.793ZM10.6,8.267a1.6,1.6,0,1,0-.039,3.2h.019a1.6,1.6,0,1,0,.02-3.2Zm8.847,4.526a2.963,2.963,0,0,0-2.7,1.527V13.01h-3c.039.868,0,9.246,0,9.246h3V17.093a2.155,2.155,0,0,1,.1-.75,1.644,1.644,0,0,1,1.537-1.124c1.084,0,1.518.848,1.518,2.09v4.947h3v-5.3C22.892,14.115,21.415,12.793,19.444,12.793Zm0,0"/>
  </g>
</svg>
