<svg id="social_viber" data-name="social viber" xmlns="http://www.w3.org/2000/svg" width="21" height="21" viewBox="0 0 21 21">
  <defs>
    <style>
      .cls-1 {
        fill: #7c519b;
      }

      .cls-2 {
        fill: #fff;
      }
    </style>
  </defs>
  <circle id="Ellipse_24" data-name="Ellipse 24" class="cls-1" cx="10.5" cy="10.5" r="10.5" transform="translate(0 0)"/>
  <g id="Group_50" data-name="Group 50" transform="translate(6.23 6.133)">
    <path id="Path_20" data-name="Path 20" class="cls-2" d="M35.821,31.2c.067-.061.114-.07.347-.063.122,0,.3.018.4.03a4,4,0,0,1,1.327.393,3.614,3.614,0,0,1,1.068.77,3.479,3.479,0,0,1,.73,1,4.789,4.789,0,0,1,.465,1.959c.01.25,0,.306-.054.377a.265.265,0,0,1-.429-.04.678.678,0,0,1-.042-.3,5.144,5.144,0,0,0-.079-.743,3.42,3.42,0,0,0-1.328-2.206,3.485,3.485,0,0,0-2.012-.71c-.272-.015-.319-.026-.381-.073A.28.28,0,0,1,35.821,31.2Zm1.706,1.84a2.735,2.735,0,0,0-1.1-.33.363.363,0,0,1-.271-.1.26.26,0,0,1-.022-.323c.074-.115.189-.134.531-.083a2.768,2.768,0,0,1,1.982,1.185,2.831,2.831,0,0,1,.455,1.266,2.37,2.37,0,0,1,0,.531.259.259,0,0,1-.371.133c-.11-.055-.143-.144-.143-.384a2.285,2.285,0,0,0-.262-1.063A2.175,2.175,0,0,0,37.527,33.041Zm.484,1.9a.278.278,0,0,1-.335.007c-.068-.052-.09-.106-.106-.253a1.337,1.337,0,0,0-.112-.46.811.811,0,0,0-.723-.456c-.176-.021-.229-.041-.286-.109a.266.266,0,0,1,.08-.4.311.311,0,0,1,.2-.023,1.9,1.9,0,0,1,.243.03,1.368,1.368,0,0,1,.682.34,1.413,1.413,0,0,1,.425.886C38.117,34.763,38.1,34.863,38.011,34.946ZM40.148,38.7a3.159,3.159,0,0,1-.805,1,1.147,1.147,0,0,1-.689.285,1.009,1.009,0,0,1-.539-.113,11.352,11.352,0,0,1-4.887-3.758,10.664,10.664,0,0,1-1.519-2.758c-.2-.555-.211-.8-.045-1.082a3.181,3.181,0,0,1,.6-.582,2.081,2.081,0,0,1,.675-.4.774.774,0,0,1,.358.033.952.952,0,0,1,.172.086,6.924,6.924,0,0,1,1.276,1.63.908.908,0,0,1,.145.631c-.046.163-.122.249-.461.522a2.477,2.477,0,0,0-.283.253.664.664,0,0,0-.093.323,2.4,2.4,0,0,0,.359,1,4.3,4.3,0,0,0,.719.844,3.951,3.951,0,0,0,.943.666c.419.209.675.261.863.174a.635.635,0,0,0,.113-.063c.014-.013.124-.147.245-.3.232-.291.285-.339.444-.393a.766.766,0,0,1,.615.055c.158.082.5.295.723.449a10.657,10.657,0,0,1,1,.815A.648.648,0,0,1,40.148,38.7Z" transform="translate(-31.548 -31.136)"/>
  </g>
</svg>
