<svg xmlns="http://www.w3.org/2000/svg" width="21" height="21" viewBox="0 0 21 21">
  <defs>
    <style>
      .cls-1 {
        fill: #25d366;
      }

      .cls-2 {
        fill: #fff;
      }
    </style>
  </defs>
  <g id="whatsapp" transform="translate(-0.12)">
    <circle id="Ellipse_25" data-name="Ellipse 25" class="cls-1" cx="10.5" cy="10.5" r="10.5" transform="translate(0.12)"/>
    <g id="Group_51" data-name="Group 51" transform="translate(5.283 5.415)">
      <path id="Path_21" data-name="Path 21" class="cls-2" d="M148.849,143.8h0a5.141,5.141,0,0,0-4.168,8.162l-.642,1.912,1.976-.633a5.145,5.145,0,1,0,2.834-9.441Zm2.994,7.263a1.44,1.44,0,0,1-1.009.725c-.271.055-.619.1-1.8-.385a6.465,6.465,0,0,1-2.563-2.265,2.93,2.93,0,0,1-.61-1.55,1.644,1.644,0,0,1,.527-1.252.741.741,0,0,1,.527-.183c.064,0,.119,0,.174,0,.151,0,.225.014.326.252.124.3.426,1.036.463,1.114a.312.312,0,0,1,.023.28,1.029,1.029,0,0,1-.165.234c-.073.087-.147.156-.225.248s-.147.17-.06.321a4.548,4.548,0,0,0,.835,1.036,3.714,3.714,0,0,0,1.206.743.32.32,0,0,0,.362-.06c.115-.124.257-.33.4-.532a.279.279,0,0,1,.367-.11c.138.05.876.413,1.027.486s.252.11.289.174A1.433,1.433,0,0,1,151.844,151.063Z" transform="translate(-143.7 -143.8)"/>
    </g>
  </g>
</svg>
